<?xml version="1.0" encoding="UTF-8"?>
<svg id="Layer_2" data-name="Layer 2" xmlns="http://www.w3.org/2000/svg" viewBox="0 0 1183.32 453.33">
  <defs>
    <style>
      .cls-1 {
        fill: #12120f;
      }
    </style>
  </defs>
  <g>
    <polygon class="cls-1" points="1025.93 147.91 1089.5 73.66 1037.97 73.66 1000.16 117.82 962.35 73.66 910.82 73.66 974.4 147.91 910.59 222.43 962.12 222.43 1000.16 178 1038.2 222.43 1089.73 222.43 1025.93 147.91"/>
    <polygon class="cls-1" points="583.75 73.64 545.17 73.64 544.7 74.22 495.59 134.4 448.97 77.28 446.02 73.66 409.83 73.66 409.83 89.29 409.83 222.49 448.97 222.49 448.97 137.26 471.11 164.39 494.16 192.64 495.87 194.03 520.06 164.39 544.7 134.21 544.7 222.48 583.84 222.48 583.84 86.24 583.84 73.71 583.75 73.64"/>
    <polygon class="cls-1" points="208.32 73.52 208.32 130.62 132.73 130.62 132.73 73.52 93.59 73.52 93.59 222.46 132.73 222.46 132.73 161.7 208.32 161.7 208.32 222.46 247.46 222.46 247.46 73.52 208.32 73.52"/>
    <path class="cls-1" d="M364.43,74.32v87.38c-1.05,16.46-15.13,29.61-31.85,29.61h-7.55c-16.72,0-30.51-13.15-31.56-29.61h-.07v-88.04h-39.14v84.34c0,8,1.08,15.38,3.23,22.17,1.56,4.78,3.64,9.33,6.2,13.56,6.26,10.11,15.02,17.98,26.28,23.6,1.12.56,2.27,1.09,3.43,1.59,10.48,4.56,22.42,6.86,35.84,6.86h.01c13.2,0,24.93-2.17,35.18-6.52,1.42-.6,2.82-1.25,4.19-1.93,4.65-2.33,8.86-5.06,12.66-8.17,13.65-12.1,22.29-29.73,22.29-49.29v-85.56h-39.14Z"/>
    <polygon class="cls-1" points="689.18 78 687.15 73.54 648.21 73.54 648.16 73.64 646.42 77.48 646.18 78 580.53 222.46 623.53 222.46 646.42 172.08 667.68 125.31 685.56 164.66 711.83 222.46 754.83 222.46 689.18 78"/>
    <polygon class="cls-1" points="748.78 87.6 748.78 222.46 787.92 222.46 787.92 132.84 863.71 220.46 865.44 222.46 902.85 222.46 902.85 205.88 902.85 73.66 863.71 73.66 863.71 160.63 788.37 73.54 748.78 73.54 748.78 87.6"/>
  </g>
  <g>
    <path class="cls-1" d="M742.2,227.5h41.7v148.94h-41.7v-148.94Z"/>
    <polygon class="cls-1" points="1089.39 259.27 1089.39 227.64 993.43 227.64 962.77 227.64 954.29 227.64 954.29 376.47 962.77 376.47 962.77 376.47 1089.39 376.47 1089.39 344.85 993.43 344.85 993.43 317.87 1083.68 317.87 1083.68 286.24 993.43 286.24 993.43 259.27 1089.39 259.27"/>
    <polygon class="cls-1" points="694.9 227.5 694.9 284.6 619.31 284.6 619.31 227.5 580.17 227.5 580.17 376.44 619.31 376.44 619.31 315.68 694.9 315.68 694.9 376.44 734.04 376.44 734.04 227.5 694.9 227.5"/>
    <polygon class="cls-1" points="269.68 227.62 231.11 227.62 230.63 228.2 181.52 288.38 134.9 231.26 131.95 227.64 95.76 227.64 95.76 243.27 95.76 376.47 134.9 376.47 134.9 291.24 157.05 318.37 180.1 346.62 181.81 348.01 206 318.37 230.63 288.19 230.63 376.46 269.77 376.46 269.77 240.22 269.77 227.69 269.68 227.62"/>
    <path class="cls-1" d="M535.79,321.39c-7.17,14.85-22.37,25.09-39.97,25.09-24.5,0-44.36-19.86-44.36-44.36s19.86-44.36,44.36-44.36c17.35,0,32.37,9.97,39.66,24.49h42.78v-.52c-9.61-33.33-42.56-57.9-81.74-57.9-46.72,0-84.59,34.92-84.59,77.99s37.87,77.99,84.59,77.99c39.18,0,72.13-24.57,81.74-57.9v-.52h-42.47Z"/>
    <polygon class="cls-1" points="376.39 231.98 374.36 227.52 335.42 227.52 335.38 227.62 333.63 231.46 333.39 231.98 267.74 376.44 310.74 376.44 333.63 326.06 354.89 279.29 372.78 318.64 399.04 376.44 442.04 376.44 376.39 231.98"/>
    <polygon class="cls-1" points="792.17 241.58 792.17 376.44 831.31 376.44 831.31 286.82 907.1 374.44 908.83 376.44 946.24 376.44 946.24 359.86 946.24 227.64 907.1 227.64 907.1 314.61 831.76 227.52 792.17 227.52 792.17 241.58"/>
  </g>
</svg>