<?xml version="1.0" encoding="UTF-8"?>
<svg id="Layer_2" data-name="Layer 2" xmlns="http://www.w3.org/2000/svg" viewBox="0 0 2122.67 376.89">
  <defs>
    <style>
      .cls-1 {
        fill: #12120f;
      }
    </style>
  </defs>
  <path class="cls-1" d="M1720.66,112.78h42.14v150.52h-42.14V112.78Z"/>
  <polygon class="cls-1" points="2071.52 144.88 2071.52 112.92 1974.55 112.92 1943.56 112.92 1934.99 112.92 1934.99 263.33 1943.56 263.33 1943.56 263.33 2071.52 263.33 2071.52 231.37 1974.55 231.37 1974.55 204.1 2065.74 204.1 2065.74 172.14 1974.55 172.14 1974.55 144.88 2071.52 144.88"/>
  <polygon class="cls-1" points="996.02 187.95 1060.27 112.92 1008.2 112.92 969.99 157.55 931.78 112.92 879.71 112.92 943.95 187.95 879.47 263.27 931.54 263.27 969.99 218.36 1008.43 263.27 1060.51 263.27 996.02 187.95"/>
  <polygon class="cls-1" points="549.17 112.9 510.19 112.9 509.71 113.49 460.08 174.31 412.96 116.57 409.98 112.92 373.41 112.92 373.41 128.72 373.41 263.33 412.96 263.33 412.96 177.19 435.34 204.61 458.64 233.16 460.37 234.57 484.81 204.61 509.71 174.11 509.71 263.31 549.26 263.31 549.26 125.64 549.26 112.98 549.17 112.9"/>
  <polygon class="cls-1" points="1672.85 112.78 1672.85 170.48 1596.47 170.48 1596.47 112.78 1556.91 112.78 1556.91 263.3 1596.47 263.3 1596.47 201.89 1672.85 201.89 1672.85 263.3 1712.41 263.3 1712.41 112.78 1672.85 112.78"/>
  <polygon class="cls-1" points="169.77 112.78 169.77 170.48 93.38 170.48 93.38 112.78 53.83 112.78 53.83 263.3 93.38 263.3 93.38 201.89 169.77 201.89 169.77 263.3 209.32 263.3 209.32 112.78 169.77 112.78"/>
  <path class="cls-1" d="M327.53,113.59v88.3c-1.06,16.64-15.29,29.93-32.18,29.93h-7.63c-16.89,0-30.83-13.29-31.89-29.93h-.07v-88.97h-39.56v85.24c0,8.08,1.09,15.54,3.27,22.41,1.58,4.83,3.68,9.43,6.27,13.71,6.33,10.22,15.18,18.17,26.56,23.85,1.14.57,2.29,1.1,3.47,1.61,10.59,4.61,22.66,6.93,36.22,6.93h.01c13.34,0,25.19-2.2,35.55-6.58,1.44-.61,2.85-1.26,4.23-1.95,4.7-2.36,8.96-5.12,12.8-8.26,13.79-12.23,22.53-30.04,22.53-49.81v-86.47h-39.56Z"/>
  <polygon class="cls-1" points="655.71 117.31 653.66 112.8 614.31 112.8 614.27 112.9 612.51 116.78 612.27 117.31 545.92 263.3 589.37 263.3 612.51 212.38 633.99 165.11 652.06 204.88 678.61 263.3 722.06 263.3 655.71 117.31"/>
  <polygon class="cls-1" points="1243.14 112.9 1204.16 112.9 1203.68 113.49 1154.05 174.31 1106.93 116.57 1103.95 112.92 1067.38 112.92 1067.38 128.72 1067.38 263.33 1106.93 263.33 1106.93 177.19 1129.31 204.61 1152.61 233.16 1154.34 234.57 1178.78 204.61 1203.68 174.11 1203.68 263.31 1243.23 263.31 1243.23 125.64 1243.23 112.98 1243.14 112.9"/>
  <path class="cls-1" d="M1512.07,207.67c-7.25,15.01-22.61,25.36-40.39,25.36-24.76,0-44.83-20.07-44.83-44.83s20.07-44.83,44.83-44.83c17.54,0,32.71,10.08,40.08,24.75h43.23v-.52c-9.71-33.69-43.01-58.51-82.61-58.51-47.21,0-85.49,35.29-85.49,78.81s38.27,78.81,85.49,78.81c39.6,0,72.89-24.83,82.61-58.51v-.52h-42.92Z"/>
  <polygon class="cls-1" points="1350.97 117.31 1348.93 112.8 1309.58 112.8 1309.53 112.9 1307.77 116.78 1307.53 117.31 1241.18 263.3 1284.63 263.3 1307.77 212.38 1329.25 165.11 1347.32 204.88 1373.87 263.3 1417.32 263.3 1350.97 117.31"/>
  <polygon class="cls-1" points="715.94 127 715.94 263.3 755.5 263.3 755.5 172.73 832.09 261.27 833.84 263.3 871.65 263.3 871.65 246.54 871.65 112.92 832.09 112.92 832.09 200.81 755.96 112.8 715.94 112.8 715.94 127"/>
  <polygon class="cls-1" points="1771.15 127 1771.15 263.3 1810.71 263.3 1810.71 172.73 1887.3 261.27 1889.05 263.3 1926.85 263.3 1926.85 246.54 1926.85 112.92 1887.3 112.92 1887.3 200.81 1811.17 112.8 1771.15 112.8 1771.15 127"/>
</svg>