<?xml version="1.0" encoding="UTF-8"?>
<svg id="Layer_2" data-name="Layer 2" xmlns="http://www.w3.org/2000/svg" viewBox="0 0 2122.67 874.67">
  <defs>
    <style>
      .cls-1 {
        fill: #12120f;
      }
    </style>
  </defs>
  <polygon class="cls-1" points="1260.88 397.82 1260.88 317.54 1341.09 317.54 1341.09 156.99 1180.54 156.99 1180.54 237.26 1100.32 237.26 1100.32 317.37 1022.26 317.37 1022.26 237.26 941.98 237.26 941.98 156.99 781.43 156.99 781.43 317.54 861.7 317.54 861.7 397.82 941.98 397.82 941.98 475.85 861.7 475.85 861.7 557.23 781.43 557.23 781.43 717.78 941.98 717.78 941.98 636.4 1022.26 636.4 1022.26 555.92 1100.32 555.92 1100.32 636.4 1180.54 636.4 1180.54 717.78 1341.09 717.78 1341.09 557.23 1260.88 557.23 1260.88 475.85 1180.54 475.85 1180.54 397.82 1260.88 397.82"/>
  <path class="cls-1" d="M462.8,156.88v81.38h-81.67v-81.38h-238.52v318.96h80.32v81.38h79.2v79.21h79v80.81h80.81v-80.81h81.78v-79.21h79.36v-81.38h78.23V156.88h-238.52ZM461.94,398.25h-80.81v-80.81h80.81v80.81ZM623.57,398.25h-80.81v-80.81h80.81v80.81Z"/>
  <path class="cls-1" d="M1900.09,636.97v-79.74h79.44V157.11h-561.41v400.12h80.81v79.74h-80.81v80.81h242.44v-53.29h77.04v53.29h242.44v-80.81h-79.96ZM1579.76,398.25h-80.81v-80.81h80.81v80.81ZM1741.39,398.25h-80.81v-80.81h80.81v80.81Z"/>
</svg>